<mxfile host="app.diagrams.net" modified="2024-05-27T12:51:41.401Z" agent="Mozilla/5.0 (X11; Linux x86_64; rv:126.0) Gecko/20100101 Firefox/126.0" etag="oOyfM-BToZ_j9_OOu8FT" version="24.4.9" type="device">
  <diagram name="Page-1" id="6MisdiE591be4nH8-Z_b">
    <mxGraphModel dx="1914" dy="1142" grid="1" gridSize="10" guides="1" tooltips="1" connect="1" arrows="1" fold="1" page="1" pageScale="1" pageWidth="850" pageHeight="1100" math="0" shadow="0">
      <root>
        <mxCell id="0" />
        <mxCell id="1" parent="0" />
        <mxCell id="Lg3jNKxZTNO3hxB_RX_t-4" value="" style="rounded=0;whiteSpace=wrap;html=1;" parent="1" vertex="1">
          <mxGeometry x="540" y="180" width="270" height="210" as="geometry" />
        </mxCell>
        <mxCell id="Lg3jNKxZTNO3hxB_RX_t-5" value="&lt;font style=&quot;font-size: 22px;&quot;&gt;fds_selector&lt;br&gt;&lt;/font&gt;" style="text;html=1;align=center;verticalAlign=middle;whiteSpace=wrap;rounded=0;" parent="1" vertex="1">
          <mxGeometry x="545" y="130" width="210" height="50" as="geometry" />
        </mxCell>
        <mxCell id="Lg3jNKxZTNO3hxB_RX_t-6" value="" style="rounded=0;whiteSpace=wrap;html=1;" parent="1" vertex="1">
          <mxGeometry x="557.5" y="190" width="235" height="50" as="geometry" />
        </mxCell>
        <mxCell id="Lg3jNKxZTNO3hxB_RX_t-9" value="&lt;font style=&quot;font-size: 22px;&quot;&gt;item_size&lt;/font&gt;" style="text;html=1;align=center;verticalAlign=middle;whiteSpace=wrap;rounded=0;" parent="1" vertex="1">
          <mxGeometry x="565" y="200" width="220" height="30" as="geometry" />
        </mxCell>
        <mxCell id="Lg3jNKxZTNO3hxB_RX_t-11" value="" style="rounded=0;whiteSpace=wrap;html=1;" parent="1" vertex="1">
          <mxGeometry x="552.5" y="305" width="240" height="70" as="geometry" />
        </mxCell>
        <mxCell id="Lg3jNKxZTNO3hxB_RX_t-12" value="&lt;font style=&quot;font-size: 22px;&quot;&gt;item&lt;/font&gt;" style="text;html=1;align=center;verticalAlign=middle;whiteSpace=wrap;rounded=0;" parent="1" vertex="1">
          <mxGeometry x="600" y="325" width="155" height="30" as="geometry" />
        </mxCell>
        <mxCell id="Lg3jNKxZTNO3hxB_RX_t-13" value="" style="ellipse;whiteSpace=wrap;html=1;aspect=fixed;fillColor=#000000;" parent="1" vertex="1">
          <mxGeometry x="580" y="332.5" width="20" height="20" as="geometry" />
        </mxCell>
        <mxCell id="Lg3jNKxZTNO3hxB_RX_t-14" value="" style="rounded=0;whiteSpace=wrap;html=1;" parent="1" vertex="1">
          <mxGeometry x="250" y="255" width="200" height="225" as="geometry" />
        </mxCell>
        <mxCell id="Lg3jNKxZTNO3hxB_RX_t-16" value="" style="curved=1;endArrow=classic;html=1;rounded=0;exitX=0;exitY=0.5;exitDx=0;exitDy=0;entryX=1;entryY=0.25;entryDx=0;entryDy=0;" parent="1" source="Lg3jNKxZTNO3hxB_RX_t-13" target="Lg3jNKxZTNO3hxB_RX_t-14" edge="1">
          <mxGeometry width="50" height="50" relative="1" as="geometry">
            <mxPoint x="480" y="295" as="sourcePoint" />
            <mxPoint x="530" y="245" as="targetPoint" />
            <Array as="points">
              <mxPoint x="480" y="245" />
            </Array>
          </mxGeometry>
        </mxCell>
        <mxCell id="Lg3jNKxZTNO3hxB_RX_t-17" value="" style="rounded=0;whiteSpace=wrap;html=1;" parent="1" vertex="1">
          <mxGeometry x="260" y="270" width="180" height="30" as="geometry" />
        </mxCell>
        <mxCell id="Lg3jNKxZTNO3hxB_RX_t-18" value="&lt;font style=&quot;font-size: 20px;&quot;&gt;name&lt;/font&gt;" style="text;html=1;align=center;verticalAlign=middle;whiteSpace=wrap;rounded=0;" parent="1" vertex="1">
          <mxGeometry x="320" y="270" width="60" height="30" as="geometry" />
        </mxCell>
        <mxCell id="Lg3jNKxZTNO3hxB_RX_t-19" value="&lt;font style=&quot;font-size: 20px;&quot;&gt;idpen_size&lt;/font&gt;" style="rounded=0;whiteSpace=wrap;html=1;" parent="1" vertex="1">
          <mxGeometry x="260" y="310" width="180" height="30" as="geometry" />
        </mxCell>
        <mxCell id="Lg3jNKxZTNO3hxB_RX_t-23" value="&lt;font style=&quot;font-size: 20px;&quot;&gt;idpen&lt;/font&gt;" style="rounded=0;whiteSpace=wrap;html=1;" parent="1" vertex="1">
          <mxGeometry x="260" y="400" width="180" height="70" as="geometry" />
        </mxCell>
        <mxCell id="Lg3jNKxZTNO3hxB_RX_t-34" value="" style="ellipse;whiteSpace=wrap;html=1;aspect=fixed;fillColor=#000000;" parent="1" vertex="1">
          <mxGeometry x="344" y="730" width="12" height="12" as="geometry" />
        </mxCell>
        <mxCell id="Lg3jNKxZTNO3hxB_RX_t-35" value="" style="ellipse;whiteSpace=wrap;html=1;aspect=fixed;fillColor=#000000;" parent="1" vertex="1">
          <mxGeometry x="344" y="770" width="12" height="12" as="geometry" />
        </mxCell>
        <mxCell id="Lg3jNKxZTNO3hxB_RX_t-36" value="" style="ellipse;whiteSpace=wrap;html=1;aspect=fixed;fillColor=#000000;" parent="1" vertex="1">
          <mxGeometry x="344" y="810" width="12" height="12" as="geometry" />
        </mxCell>
        <mxCell id="Lg3jNKxZTNO3hxB_RX_t-40" value="" style="ellipse;whiteSpace=wrap;html=1;aspect=fixed;fillColor=#050505;" parent="1" vertex="1">
          <mxGeometry x="270" y="425" width="20" height="20" as="geometry" />
        </mxCell>
        <mxCell id="Lg3jNKxZTNO3hxB_RX_t-44" value="" style="rounded=0;whiteSpace=wrap;html=1;" parent="1" vertex="1">
          <mxGeometry x="40" y="350" width="130" height="100" as="geometry" />
        </mxCell>
        <mxCell id="Lg3jNKxZTNO3hxB_RX_t-45" value="&lt;font style=&quot;font-size: 22px;&quot;&gt;fds_selector_idpen&lt;/font&gt;" style="text;html=1;align=center;verticalAlign=middle;whiteSpace=wrap;rounded=0;" parent="1" vertex="1">
          <mxGeometry x="30" y="310" width="150" height="30" as="geometry" />
        </mxCell>
        <mxCell id="Lg3jNKxZTNO3hxB_RX_t-46" value="&lt;font style=&quot;font-size: 20px;&quot;&gt;pen&lt;/font&gt;" style="rounded=0;whiteSpace=wrap;html=1;" parent="1" vertex="1">
          <mxGeometry x="45" y="365" width="120" height="30" as="geometry" />
        </mxCell>
        <mxCell id="Lg3jNKxZTNO3hxB_RX_t-47" value="&lt;font style=&quot;font-size: 20px;&quot;&gt;id&lt;/font&gt;" style="rounded=0;whiteSpace=wrap;html=1;" parent="1" vertex="1">
          <mxGeometry x="45" y="400" width="120" height="30" as="geometry" />
        </mxCell>
        <mxCell id="Lg3jNKxZTNO3hxB_RX_t-48" value="" style="curved=1;endArrow=classic;html=1;rounded=0;exitX=0;exitY=0.5;exitDx=0;exitDy=0;entryX=1.031;entryY=0.37;entryDx=0;entryDy=0;entryPerimeter=0;" parent="1" source="Lg3jNKxZTNO3hxB_RX_t-40" target="Lg3jNKxZTNO3hxB_RX_t-44" edge="1">
          <mxGeometry width="50" height="50" relative="1" as="geometry">
            <mxPoint x="220" y="380" as="sourcePoint" />
            <mxPoint x="270" y="330" as="targetPoint" />
            <Array as="points">
              <mxPoint x="280" y="450" />
              <mxPoint x="220" y="430" />
              <mxPoint x="230" y="390" />
              <mxPoint x="190" y="360" />
            </Array>
          </mxGeometry>
        </mxCell>
        <mxCell id="Lg3jNKxZTNO3hxB_RX_t-49" value="" style="rounded=0;whiteSpace=wrap;html=1;" parent="1" vertex="1">
          <mxGeometry x="40" y="450" width="130" height="100" as="geometry" />
        </mxCell>
        <mxCell id="Lg3jNKxZTNO3hxB_RX_t-50" value="&lt;font style=&quot;font-size: 20px;&quot;&gt;pen&lt;/font&gt;" style="rounded=0;whiteSpace=wrap;html=1;" parent="1" vertex="1">
          <mxGeometry x="45" y="465" width="120" height="30" as="geometry" />
        </mxCell>
        <mxCell id="Lg3jNKxZTNO3hxB_RX_t-51" value="&lt;font style=&quot;font-size: 20px;&quot;&gt;id&lt;/font&gt;" style="rounded=0;whiteSpace=wrap;html=1;" parent="1" vertex="1">
          <mxGeometry x="45" y="500" width="120" height="30" as="geometry" />
        </mxCell>
        <mxCell id="Lg3jNKxZTNO3hxB_RX_t-52" value="" style="ellipse;whiteSpace=wrap;html=1;aspect=fixed;fillColor=#000000;" parent="1" vertex="1">
          <mxGeometry x="99" y="568" width="12" height="12" as="geometry" />
        </mxCell>
        <mxCell id="Lg3jNKxZTNO3hxB_RX_t-53" value="" style="ellipse;whiteSpace=wrap;html=1;aspect=fixed;fillColor=#000000;" parent="1" vertex="1">
          <mxGeometry x="99" y="608" width="12" height="12" as="geometry" />
        </mxCell>
        <mxCell id="Lg3jNKxZTNO3hxB_RX_t-54" value="" style="ellipse;whiteSpace=wrap;html=1;aspect=fixed;fillColor=#000000;" parent="1" vertex="1">
          <mxGeometry x="99" y="648" width="12" height="12" as="geometry" />
        </mxCell>
        <mxCell id="Lg3jNKxZTNO3hxB_RX_t-55" value="" style="rounded=0;whiteSpace=wrap;html=1;" parent="1" vertex="1">
          <mxGeometry x="40" y="672" width="130" height="100" as="geometry" />
        </mxCell>
        <mxCell id="Lg3jNKxZTNO3hxB_RX_t-56" value="&lt;font style=&quot;font-size: 20px;&quot;&gt;pen&lt;/font&gt;" style="rounded=0;whiteSpace=wrap;html=1;" parent="1" vertex="1">
          <mxGeometry x="45" y="687" width="120" height="30" as="geometry" />
        </mxCell>
        <mxCell id="Lg3jNKxZTNO3hxB_RX_t-57" value="&lt;font style=&quot;font-size: 20px;&quot;&gt;id&lt;/font&gt;" style="rounded=0;whiteSpace=wrap;html=1;" parent="1" vertex="1">
          <mxGeometry x="45" y="722" width="120" height="30" as="geometry" />
        </mxCell>
        <mxCell id="3e2BVFvacnclSS6ht_06-1" value="&lt;font style=&quot;font-size: 22px;&quot;&gt;fds_selector_item&lt;/font&gt;" style="text;html=1;align=center;verticalAlign=middle;resizable=0;points=[];autosize=1;strokeColor=none;fillColor=none;" vertex="1" parent="1">
          <mxGeometry x="250" y="210" width="200" height="40" as="geometry" />
        </mxCell>
        <mxCell id="3e2BVFvacnclSS6ht_06-2" value="" style="rounded=0;whiteSpace=wrap;html=1;" vertex="1" parent="1">
          <mxGeometry x="555.63" y="250" width="234.37" height="45" as="geometry" />
        </mxCell>
        <mxCell id="3e2BVFvacnclSS6ht_06-4" value="&lt;font style=&quot;font-size: 22px;&quot;&gt;iemgr&lt;/font&gt;" style="text;html=1;align=center;verticalAlign=middle;whiteSpace=wrap;rounded=0;" vertex="1" parent="1">
          <mxGeometry x="642.5" y="257.5" width="60" height="30" as="geometry" />
        </mxCell>
        <mxCell id="3e2BVFvacnclSS6ht_06-6" value="" style="rounded=0;whiteSpace=wrap;html=1;" vertex="1" parent="1">
          <mxGeometry x="260" y="352.5" width="180" height="35" as="geometry" />
        </mxCell>
        <mxCell id="3e2BVFvacnclSS6ht_06-7" value="&lt;font style=&quot;font-size: 22px;&quot;&gt;flag&lt;/font&gt;" style="text;html=1;align=center;verticalAlign=middle;whiteSpace=wrap;rounded=0;" vertex="1" parent="1">
          <mxGeometry x="316" y="355" width="60" height="30" as="geometry" />
        </mxCell>
        <mxCell id="3e2BVFvacnclSS6ht_06-8" value="" style="rounded=0;whiteSpace=wrap;html=1;" vertex="1" parent="1">
          <mxGeometry x="250" y="480" width="200" height="225" as="geometry" />
        </mxCell>
        <mxCell id="3e2BVFvacnclSS6ht_06-9" value="" style="rounded=0;whiteSpace=wrap;html=1;" vertex="1" parent="1">
          <mxGeometry x="260" y="495" width="180" height="30" as="geometry" />
        </mxCell>
        <mxCell id="3e2BVFvacnclSS6ht_06-10" value="&lt;font style=&quot;font-size: 20px;&quot;&gt;name&lt;/font&gt;" style="text;html=1;align=center;verticalAlign=middle;whiteSpace=wrap;rounded=0;" vertex="1" parent="1">
          <mxGeometry x="320" y="495" width="60" height="30" as="geometry" />
        </mxCell>
        <mxCell id="3e2BVFvacnclSS6ht_06-11" value="&lt;font style=&quot;font-size: 20px;&quot;&gt;idpen_size&lt;/font&gt;" style="rounded=0;whiteSpace=wrap;html=1;" vertex="1" parent="1">
          <mxGeometry x="260" y="535" width="180" height="30" as="geometry" />
        </mxCell>
        <mxCell id="3e2BVFvacnclSS6ht_06-12" value="&lt;font style=&quot;font-size: 20px;&quot;&gt;idpen&lt;/font&gt;" style="rounded=0;whiteSpace=wrap;html=1;" vertex="1" parent="1">
          <mxGeometry x="260" y="625" width="180" height="70" as="geometry" />
        </mxCell>
        <mxCell id="3e2BVFvacnclSS6ht_06-13" value="" style="ellipse;whiteSpace=wrap;html=1;aspect=fixed;fillColor=#050505;" vertex="1" parent="1">
          <mxGeometry x="270" y="650" width="20" height="20" as="geometry" />
        </mxCell>
        <mxCell id="3e2BVFvacnclSS6ht_06-14" value="" style="rounded=0;whiteSpace=wrap;html=1;" vertex="1" parent="1">
          <mxGeometry x="260" y="577.5" width="180" height="35" as="geometry" />
        </mxCell>
        <mxCell id="3e2BVFvacnclSS6ht_06-15" value="&lt;font style=&quot;font-size: 22px;&quot;&gt;flag&lt;/font&gt;" style="text;html=1;align=center;verticalAlign=middle;whiteSpace=wrap;rounded=0;" vertex="1" parent="1">
          <mxGeometry x="316" y="580" width="60" height="30" as="geometry" />
        </mxCell>
        <mxCell id="3e2BVFvacnclSS6ht_06-16" value="" style="rounded=0;whiteSpace=wrap;html=1;" vertex="1" parent="1">
          <mxGeometry x="250" y="840" width="200" height="225" as="geometry" />
        </mxCell>
        <mxCell id="3e2BVFvacnclSS6ht_06-17" value="" style="rounded=0;whiteSpace=wrap;html=1;" vertex="1" parent="1">
          <mxGeometry x="260" y="855" width="180" height="30" as="geometry" />
        </mxCell>
        <mxCell id="3e2BVFvacnclSS6ht_06-18" value="&lt;font style=&quot;font-size: 20px;&quot;&gt;name&lt;/font&gt;" style="text;html=1;align=center;verticalAlign=middle;whiteSpace=wrap;rounded=0;" vertex="1" parent="1">
          <mxGeometry x="320" y="855" width="60" height="30" as="geometry" />
        </mxCell>
        <mxCell id="3e2BVFvacnclSS6ht_06-19" value="&lt;font style=&quot;font-size: 20px;&quot;&gt;idpen_size&lt;/font&gt;" style="rounded=0;whiteSpace=wrap;html=1;" vertex="1" parent="1">
          <mxGeometry x="260" y="895" width="180" height="30" as="geometry" />
        </mxCell>
        <mxCell id="3e2BVFvacnclSS6ht_06-20" value="&lt;font style=&quot;font-size: 20px;&quot;&gt;idpen&lt;/font&gt;" style="rounded=0;whiteSpace=wrap;html=1;" vertex="1" parent="1">
          <mxGeometry x="260" y="985" width="180" height="70" as="geometry" />
        </mxCell>
        <mxCell id="3e2BVFvacnclSS6ht_06-21" value="" style="ellipse;whiteSpace=wrap;html=1;aspect=fixed;fillColor=#050505;" vertex="1" parent="1">
          <mxGeometry x="270" y="1010" width="20" height="20" as="geometry" />
        </mxCell>
        <mxCell id="3e2BVFvacnclSS6ht_06-22" value="" style="rounded=0;whiteSpace=wrap;html=1;" vertex="1" parent="1">
          <mxGeometry x="260" y="937.5" width="180" height="35" as="geometry" />
        </mxCell>
        <mxCell id="3e2BVFvacnclSS6ht_06-23" value="&lt;font style=&quot;font-size: 22px;&quot;&gt;flag&lt;/font&gt;" style="text;html=1;align=center;verticalAlign=middle;whiteSpace=wrap;rounded=0;" vertex="1" parent="1">
          <mxGeometry x="316" y="940" width="60" height="30" as="geometry" />
        </mxCell>
      </root>
    </mxGraphModel>
  </diagram>
</mxfile>
